<svg width="52" height="47" viewBox="0 0 52 47" fill="none" xmlns="http://www.w3.org/2000/svg">
<path d="M34.9096 31.7638C27.0306 29.4167 23.3029 24.7454 22.4239 22.7031C22.6412 23.733 18.4665 23.4826 17.2677 23.3223C17.2069 26.8556 26.8189 32.9144 28.3692 33.8916C29.3091 32.4006 33.4423 32.0295 34.9096 31.7638Z" stroke="#D79E2B"/>
<path d="M34.8656 17.5358C26.7122 18.5892 21.4091 15.8334 19.7768 14.3238C20.3935 15.1768 16.4765 16.6428 15.3159 16.9829C16.6947 20.2366 27.9386 21.8717 29.7522 22.1355C30.0058 20.3913 33.6325 18.3743 34.8656 17.5358Z" stroke="#D79E2B"/>
<path d="M47.1471 18.5619C40.447 23.3259 34.4709 23.3878 32.3204 22.8232C33.2658 23.286 30.4984 26.4217 29.6341 27.2677C32.381 29.4908 43.073 25.646 44.7975 25.0259C44.2011 23.3673 46.4532 19.8817 47.1471 18.5619Z" stroke="#D79E2B"/>
<circle cx="47.782" cy="38.6021" r="3.5" fill="#D79E2B"/>
<path d="M27.251 3.24146L16.5014 9.68652C9.30142 14.0033 6.96418 23.3395 11.281 30.5395C15.5978 37.7395 24.934 40.0767 32.134 35.7599L42.8836 29.3149" stroke="#D79E2B" stroke-width="6"/>
<path d="M27.1937 34.8781C19.2856 32.631 15.499 28.0073 14.5942 25.9764C14.8246 27.0034 10.6469 26.806 9.44628 26.6609C9.4302 30.1946 19.1182 36.1311 20.6808 37.0886C21.6017 35.5858 25.7299 35.1624 27.1937 34.8781Z" stroke="#D79E2B"/>
<path d="M35.6523 12.1924C33.78 8.45302 29.8746 8.90954 28.1559 9.60521C28.6624 8.64149 29.4074 7.92606 30.1525 7.21063L30.1525 7.21056C31.3893 6.2616 35.08 4.38839 36.307 3.92625C39.6213 3.79866 42.0134 6.72062 42.7952 8.19755L40.6044 8.15312C38.6522 8.35704 36.4072 10.9901 35.6523 12.1924Z" stroke="#D79E2B"/>
</svg>
